<svg xmlns="http://www.w3.org/2000/svg" fill-rule="evenodd" viewBox="0 0 100 100">
    <path d="M57.74 54.764a38.831 38.831 0 0 0-2.307-.392 38.69 38.69 0 0 0-5.437-.391 38.69 38.69 0 0 0-4.682.295c-.841.099-1.593.228-2.078.312C25.223 57.795 11.5 73.562 11.5 92.484a1.5 1.5 0 0 0 1.5 1.5h74a1.5 1.5 0 0 0 1.5-1.5c0-18.578-13.228-34.126-30.76-37.72zm-2.808 2.566v7.654h-9v-7.762a35.648 35.648 0 0 1 4.064-.241c1.676.001 3.322.124 4.936.349zm-3.053 10.655 3.318 23H44.688l3.318-23h3.873zM42.932 57.69v8.794a1.5 1.5 0 0 0 1.5 1.5h.543l-3.318 23H14.531c.69-16.487 12.676-30.104 28.401-33.294zm15.297 33.295-3.318-23h1.521a1.5 1.5 0 0 0 1.5-1.5v-8.598c15.297 3.508 26.86 16.917 27.537 33.098h-27.24zM49.35 49.71c12.192 0 22.112-9.916 22.112-22.104 0-12.189-9.919-22.105-22.112-22.105-12.189 0-22.105 9.916-22.105 22.105 0 12.188 9.916 22.104 22.105 22.104zm0-41.21c10.538 0 19.112 8.57 19.112 19.105 0 10.534-8.574 19.104-19.112 19.104-10.535 0-19.105-8.57-19.105-19.104S38.815 8.5 49.35 8.5z"/>
    <path d="M44.582 29.985c1.727 0 3.137-1.319 3.315-3h3.071c.178 1.681 1.587 3 3.315 3h7.3a3.354 3.354 0 0 0 3.35-3.351v-3.3a3.354 3.354 0 0 0-3.35-3.35h-7.3a3.354 3.354 0 0 0-3.35 3.35v.65h-3v-.65a3.354 3.354 0 0 0-3.35-3.35h-7.3a3.354 3.354 0 0 0-3.35 3.35v3.3a3.354 3.354 0 0 0 3.35 3.351h7.299zm9.35-6.651c0-.192.157-.35.35-.35h7.3a.35.35 0 0 1 .35.35v3.3a.351.351 0 0 1-.35.351h-7.3a.35.35 0 0 1-.35-.351v-3.3zm-17 3.3v-3.3c0-.192.157-.35.35-.35h7.3a.35.35 0 0 1 .35.35v3.3a.351.351 0 0 1-.35.351h-7.3a.35.35 0 0 1-.35-.351z"/>
</svg>
